<svg width="1520" height="537" viewBox="0 0 1520 537" fill="none" xmlns="http://www.w3.org/2000/svg">
<path d="M1520 537H1411.56H120.991H0C92.8468 458.74 468.277 317 767.611 317C1064.12 317 1425.02 459.896 1520 537Z" fill="#F8D1DF"/>
<g clip-path="url(#clip0)">
<path d="M579.738 205.91C537.921 196.255 491.728 193.893 482.431 194.745L389.718 199.399C322.987 210.387 246.517 270.208 225.136 313.145C181.847 399.693 223.433 471.195 317.697 472.861C344.223 473.33 346.592 428.24 341.769 402.131C402.008 385.076 474.915 372.631 555.292 366.488C596.421 398.799 679.835 373.778 679.835 313.145C679.835 255.36 621.555 215.565 579.738 205.91Z" fill="#5A0650"/>
<path d="M512.84 115.564C521.475 144.977 502.407 153.352 491.794 153.862C467.69 169.692 414.84 200.024 396.277 194.714C373.071 188.076 370.374 179.905 369.295 162.033C329.9 142.117 363.824 118.383 352.517 102.928C333.419 76.8232 376.896 42.4314 402.494 55.2767C408.183 26.6858 469.538 22.5422 479.382 51.7333C506.905 49.6907 527.95 87.9889 512.84 115.564Z" fill="#632914"/>
<path d="M497.453 116.096C512.251 160.438 497.653 213.553 465.297 206.863C456.958 226.6 490.982 256.371 448.285 256.371C422.349 256.371 399.643 239.922 385.303 227.192C379.692 222.211 379.932 213.433 384.651 207.603C393.474 196.705 402.329 183.276 403.086 166.437C379.473 167.658 375.444 144.926 382.502 133.582C391.072 119.804 401.776 133.941 408.085 142.386C409.675 144.513 413.937 144.146 415.498 141.998C417.782 138.851 420.354 134.41 420.234 127.778C420.048 117.511 436.128 123.302 444.648 110.687C453.625 113.129 477.606 107.025 480.861 85.4683C486.236 89.7501 491.797 99.1495 497.453 116.096Z" fill="#FCBA8B"/>
<path d="M395.951 329.076L395.988 327.116C395.988 327.116 410.935 324.297 416.892 320.096C422.127 316.407 425.694 313.216 430.182 313.581C435.934 308.58 479.951 260.878 493.369 254.152C506.787 247.424 511.906 253.054 503.626 263.092C495.345 273.13 445.12 303.869 437.924 320.644C433.435 331.031 431.088 337.226 394.678 340.639L394.779 338.572C394.779 338.572 415.804 334.735 415.401 332.546C415.388 331.555 395.946 334.937 395.946 334.937L396.007 332.66C396.007 332.66 414.61 328.568 414.453 327.262C414.294 325.957 395.951 329.076 395.951 329.076Z" fill="white"/>
<path d="M529.56 289.628C535.52 294.65 544.236 293.178 552.356 291.79C555.14 291.314 557.797 292.94 558.44 295.637C560.587 304.626 563.994 324.985 555.923 341.026C553.108 346.653 538.937 335.514 532.654 338.625C516.088 347.631 491.441 333.688 488.592 329.619C485.744 325.55 484.117 325.55 474.758 326.364C465.399 327.177 462.551 319.446 469.061 314.155C457.668 317.411 453.599 312.528 455.634 308.865C457.668 305.203 478.827 299.506 488.592 297.471C485.744 293.809 471.91 295.637 468.248 297.471C467.434 301.947 462.958 306.424 455.634 306.017C451.972 306.017 454.006 293.402 457.261 288.111C460.517 282.821 478.013 282.007 484.117 279.973C479.641 275.089 473.944 278.345 469.061 279.973C464.179 281.6 457.668 283.228 457.261 279.973C456.855 273.869 469.061 268.578 478.827 264.102C488.556 259.643 502.324 270.127 508.059 272.62C508.104 272.64 508.15 272.654 508.198 272.665C522.365 275.93 522.255 283.756 529.56 289.628Z" fill="#FCBA8B"/>
<path d="M492.662 177.972C485.375 174.863 478.088 180.305 477.278 180.305C474.04 177.195 466.429 174.552 461.895 176.418C460.275 186.524 471.61 189.633 477.278 189.633C482.946 189.633 488.614 186.524 492.662 177.972Z" fill="#CA5919"/>
<path d="M492.423 137.951C495.927 137.126 499.868 137.433 502.427 140.044L500.109 142.259C499.782 141.926 493.882 139.173 487.372 144.11L484.821 142.16C487.068 139.296 488.875 138.786 492.423 137.951Z" fill="#0E0E10"/>
<path d="M453.762 139.533C450.161 139.631 446.436 140.935 444.648 144.111L447.469 145.658C447.697 145.252 452.438 140.697 462.378 145.26L464.331 142.725C461.41 140.532 457.409 139.433 453.762 139.533Z" fill="#0E0E10"/>
<path d="M484.117 127.024C485.184 126.273 497.817 121.125 504.055 125.744C505.715 126.973 507.31 128.185 506.496 131.633C501.945 128.818 491.931 130.939 485.287 132.433C480.862 133.428 481.269 128.185 484.117 127.024Z" fill="#0E0E10"/>
<path d="M464.513 127.024C460.672 125.413 446.411 123.265 439.765 128.999C437.723 130.761 436.103 134.289 437.324 137.545C442.502 134.878 454.992 131.652 462.551 133.068C469.635 134.395 467.414 127.915 464.513 127.024Z" fill="#0E0E10"/>
<path d="M342.647 394.885C331.383 401.283 327.97 398.435 319.851 397.047C317.067 396.571 314.41 398.197 313.766 400.893C311.62 409.883 308.212 430.242 316.283 446.283C319.099 451.91 333.27 440.771 339.552 443.881C348.036 448.028 363.194 447.858 371.235 446.524C373.072 446.219 375.248 447.237 376.724 448.373C380.713 451.446 388.705 454.472 388.705 455.768C388.705 457.432 386.788 463.851 381.517 460.523C376.246 457.195 368.819 461.949 370.976 463.851C373.132 465.753 389.663 472.648 397.57 474.549C405.476 476.451 407.153 472.172 408.351 469.081C413.143 468.844 415.059 458.621 413.622 445.783C414.341 449.587 419.851 455.53 421.049 465.991C422.247 476.451 432.309 485.961 431.591 476.689C430.872 467.417 428.715 443.643 423.685 437.232C418.653 430.821 403.08 416.779 393.018 407.204C386.055 400.893 353.91 388.485 342.647 394.885Z" fill="#FCBA8B"/>
<path d="M480.675 149.753C480.675 149.753 487.274 160.471 484.771 165.83C482.268 171.19 474.758 168.716 474.758 168.716" stroke="#D58E54" stroke-width="4" stroke-miterlimit="10" stroke-linejoin="round"/>
</g>
<path d="M490 341C507.673 341 522 343.239 522 346C526 356 535 380.1 535 396.5C535 414.485 518.963 429.432 497.855 432.446C497.855 432.446 494.46 448.367 496.19 449.096C497.921 449.825 499 450.857 499 452C499 452.984 498.2 453.886 496.873 454.582C495.547 455.279 501.745 463.021 510.891 463.928C520.037 464.834 526 466.32 526 468C526 470.761 509.882 473 490 473C470.118 473 454 470.761 454 468C454 466.32 459.963 464.834 469.109 463.928C478.255 463.021 484.453 455.279 483.127 454.582C481.8 453.886 481 452.984 481 452C481 450.857 482.079 449.825 483.81 449.096C485.54 448.367 482.145 432.446 482.145 432.446C461.037 429.432 445 414.485 445 396.5C445 387.3 453.333 359 458 346C458 343.239 472.327 341 490 341Z" fill="#FFE8C5"/>
<path d="M490.5 424C511.211 424 528 412.807 528 399C528 391.054 524.789 384.316 522 380H458.031C455.479 383.743 453 389.941 453 399C453 412.807 469.789 424 490.5 424Z" fill="#EF8F50"/>
<ellipse cx="490" cy="380" rx="32" ry="7" fill="#CA5919"/>
<path d="M793.506 278H793.494C791.762 278 790.237 278.881 789.339 280.218C788.073 279.22 786.347 278.852 784.697 279.387L784.685 279.391C783.036 279.927 781.856 281.238 781.417 282.791C779.904 282.235 778.151 282.421 776.749 283.44L776.739 283.448C775.339 284.467 774.624 286.076 774.685 287.685C773.076 287.624 771.467 288.339 770.448 289.739L770.44 289.749C769.421 291.151 769.235 292.904 769.791 294.417C768.238 294.856 766.927 296.036 766.391 297.685L766.387 297.697C765.852 299.347 766.22 301.073 767.218 302.339C765.881 303.237 765 304.762 765 306.494V306.506C765 308.238 765.881 309.763 767.218 310.661C766.22 311.927 765.852 313.653 766.387 315.303L766.391 315.315C766.927 316.964 768.238 318.144 769.791 318.583C769.235 320.096 769.421 321.849 770.44 323.251L770.448 323.261C771.467 324.661 773.076 325.376 774.685 325.315C774.624 326.924 775.339 328.533 776.739 329.552L776.749 329.56C778.151 330.579 779.904 330.765 781.417 330.209C781.856 331.762 783.036 333.073 784.685 333.609L784.697 333.613C786.347 334.148 788.073 333.78 789.339 332.782C790.237 334.119 791.762 335 793.494 335H793.506C795.238 335 796.763 334.119 797.661 332.782C798.927 333.78 800.653 334.148 802.303 333.613L802.315 333.609C803.964 333.073 805.144 331.762 805.583 330.209C807.096 330.765 808.849 330.579 810.251 329.56L810.261 329.552C811.661 328.533 812.376 326.924 812.315 325.315C813.924 325.376 815.533 324.661 816.552 323.261L816.56 323.251C817.579 321.849 817.765 320.096 817.209 318.583C818.762 318.144 820.073 316.964 820.609 315.315L820.613 315.303C821.148 313.653 820.78 311.927 819.782 310.661C821.119 309.763 822 308.238 822 306.506V306.494C822 304.762 821.119 303.237 819.782 302.339C820.78 301.073 821.148 299.347 820.613 297.697L820.609 297.685C820.073 296.036 818.762 294.856 817.209 294.417C817.765 292.904 817.579 291.151 816.56 289.749L816.552 289.739C815.533 288.339 813.924 287.624 812.315 287.685C812.376 286.076 811.661 284.467 810.261 283.448L810.251 283.44C808.849 282.421 807.096 282.235 805.583 282.791C805.144 281.238 803.964 279.927 802.315 279.391L802.303 279.387C800.653 278.852 798.927 279.22 797.661 280.218C796.763 278.881 795.238 278 793.506 278Z" fill="#CA5919"/>
<path d="M679.506 267H679.494C677.762 267 676.237 267.881 675.339 269.218C674.073 268.22 672.347 267.852 670.697 268.387L670.685 268.391C669.036 268.927 667.856 270.238 667.417 271.791C665.904 271.235 664.151 271.421 662.749 272.44L662.739 272.448C661.339 273.467 660.624 275.076 660.685 276.685C659.076 276.624 657.467 277.339 656.448 278.739L656.44 278.749C655.421 280.151 655.235 281.904 655.791 283.417C654.238 283.856 652.927 285.036 652.391 286.685L652.387 286.697C651.852 288.347 652.22 290.073 653.218 291.339C651.881 292.237 651 293.762 651 295.494V295.506C651 297.238 651.881 298.763 653.218 299.661C652.22 300.927 651.852 302.653 652.387 304.303L652.391 304.315C652.927 305.964 654.238 307.144 655.791 307.583C655.235 309.096 655.421 310.849 656.44 312.251L656.448 312.261C657.467 313.661 659.076 314.376 660.685 314.315C660.624 315.924 661.339 317.533 662.739 318.552L662.749 318.56C664.151 319.579 665.904 319.765 667.417 319.209C667.856 320.762 669.036 322.073 670.685 322.609L670.697 322.613C672.347 323.148 674.073 322.78 675.339 321.782C676.237 323.119 677.762 324 679.494 324H679.506C681.238 324 682.763 323.119 683.661 321.782C684.927 322.78 686.653 323.148 688.303 322.613L688.315 322.609C689.964 322.073 691.144 320.762 691.583 319.209C693.096 319.765 694.849 319.579 696.251 318.56L696.261 318.552C697.661 317.533 698.376 315.924 698.315 314.315C699.924 314.376 701.533 313.661 702.552 312.261L702.56 312.251C703.579 310.849 703.765 309.096 703.209 307.583C704.762 307.144 706.073 305.964 706.609 304.315L706.613 304.303C707.148 302.653 706.78 300.927 705.782 299.661C707.119 298.763 708 297.238 708 295.506V295.494C708 293.762 707.119 292.237 705.782 291.339C706.78 290.073 707.148 288.347 706.613 286.697L706.609 286.685C706.073 285.036 704.762 283.856 703.209 283.417C703.765 281.904 703.579 280.151 702.56 278.749L702.552 278.739C701.533 277.339 699.924 276.624 698.315 276.685C698.376 275.076 697.661 273.467 696.261 272.448L696.251 272.44C694.849 271.421 693.096 271.235 691.583 271.791C691.144 270.238 689.964 268.927 688.315 268.391L688.303 268.387C686.653 267.852 684.927 268.22 683.661 269.218C682.763 267.881 681.238 267 679.506 267Z" fill="#CA5919"/>
<ellipse cx="747" cy="360" rx="119" ry="23" fill="#D2F5F5"/>
<ellipse cx="747" cy="435" rx="61" ry="23" fill="white"/>
<path d="M738.158 393.774C743.037 393.344 747.742 392.31 752.199 390.747C762.329 407.67 780.842 419 802 419C834.033 419 860 393.033 860 361C860 328.967 834.033 303 802 303V303C790.611 303 778.887 298.751 770.144 291.453C760.082 283.054 747.131 278 733 278C718.847 278 705.878 283.069 695.809 291.491C688.658 297.474 680.312 302.22 671.529 305.349C649.074 313.35 633 334.798 633 360C633 392.033 658.967 418 691 418C710.432 418 727.633 408.443 738.158 393.774Z" fill="#FFBB55"/>
<path d="M826.5 383C829.167 374.833 831.2 356.9 818 350.5C801.5 342.5 767.5 344 756.5 331C745.5 318 724.5 295.685 702 307.685M799.5 384C802.167 379.667 804.7 369.9 793.5 365.5C779.5 360 749.5 365 738.5 348C727.5 331 713 309.998 686.5 316.498M666.665 328.5C656.165 328.667 635.7 338 636.5 376M740 388.5C739.5 387.5 719.5 383 714 360.5C707.835 335.281 676 339 673 359C670.6 375 678 382.333 682 384M792.709 412C819.379 412 841 390.453 841 363.872C841 337.292 819.379 315.745 792.709 315.745C783.222 315.745 773.46 312.206 766.163 306.144C757.789 299.186 747.015 295 735.26 295C724.359 295 714.302 298.6 706.22 304.671C698.777 310.262 690.409 315.011 681.806 318.567C664.308 325.798 652 342.988 652 363.043C652 389.623 673.62 411.17 700.291 411.17" stroke="#FFF0BD" stroke-width="6" stroke-miterlimit="10" stroke-linejoin="round"/>
<g style="mix-blend-mode:multiply">
<path d="M770.144 291.453C760.082 283.054 747.131 278 733 278C718.847 278 705.878 283.069 695.809 291.491C688.658 297.474 680.314 302.219 671.531 305.348C660.658 309.222 651.281 316.249 644.5 325.328C654 336.885 687.9 360 747.5 360C807.1 360 839.157 336.885 847.736 325.328C837.121 311.737 820.581 303 802 303C790.611 303 778.887 298.751 770.144 291.453Z" fill="#EF8F50"/>
</g>
<path d="M747 383C812.722 383 866 372.703 866 360C866 403.968 812.722 446 747 446C681.278 446 628 403.968 628 360C628 372.703 681.278 383 747 383Z" fill="#D2F5F5"/>
<path d="M747 383C812.722 383 866 372.703 866 360C866 393.961 834.214 426.766 789.46 439.941C722.239 438.495 667.089 410.849 656.023 374.827C677.852 379.825 710.508 383 747 383Z" fill="white"/>
<path d="M724.506 313H724.494C722.762 313 721.237 313.881 720.339 315.218C719.073 314.22 717.347 313.852 715.697 314.387L715.685 314.391C714.036 314.927 712.856 316.238 712.417 317.791C710.904 317.235 709.151 317.421 707.749 318.44L707.739 318.448C706.339 319.467 705.624 321.076 705.685 322.685C704.076 322.624 702.467 323.339 701.448 324.739L701.44 324.749C700.421 326.151 700.235 327.904 700.791 329.417C699.238 329.856 697.927 331.036 697.391 332.685L697.387 332.697C696.852 334.347 697.22 336.073 698.218 337.339C696.881 338.237 696 339.762 696 341.494V341.506C696 343.238 696.881 344.763 698.218 345.661C697.22 346.927 696.852 348.653 697.387 350.303L697.391 350.315C697.927 351.964 699.238 353.144 700.791 353.583C700.235 355.096 700.421 356.849 701.44 358.251L701.448 358.261C702.467 359.661 704.076 360.376 705.685 360.315C705.624 361.924 706.339 363.533 707.739 364.552L707.749 364.56C709.151 365.579 710.904 365.765 712.417 365.209C712.856 366.762 714.036 368.073 715.685 368.609L715.697 368.613C717.347 369.148 719.073 368.78 720.339 367.782C721.237 369.119 722.762 370 724.494 370H724.506C726.238 370 727.763 369.119 728.661 367.782C729.927 368.78 731.653 369.148 733.303 368.613L733.315 368.609C734.964 368.073 736.144 366.762 736.583 365.209C738.096 365.765 739.849 365.579 741.251 364.56L741.261 364.552C742.661 363.533 743.376 361.924 743.315 360.315C744.924 360.376 746.533 359.661 747.552 358.261L747.56 358.251C748.579 356.849 748.765 355.096 748.209 353.583C749.762 353.144 751.073 351.964 751.609 350.315L751.613 350.303C752.148 348.653 751.78 346.927 750.782 345.661C752.119 344.763 753 343.238 753 341.506V341.494C753 339.762 752.119 338.237 750.782 337.339C751.78 336.073 752.148 334.347 751.613 332.697L751.609 332.685C751.073 331.036 749.762 329.856 748.209 329.417C748.765 327.904 748.579 326.151 747.56 324.749L747.552 324.739C746.533 323.339 744.924 322.624 743.315 322.685C743.376 321.076 742.661 319.467 741.261 318.448L741.251 318.44C739.849 317.421 738.096 317.235 736.583 317.791C736.144 316.238 734.964 314.927 733.315 314.391L733.303 314.387C731.653 313.852 729.927 314.22 728.661 315.218C727.763 313.881 726.238 313 724.506 313Z" fill="#CA5919"/>
<path d="M741.385 303.385C742.509 299.437 741.578 295.093 738.556 292.071C735.535 289.05 731.19 288.118 727.242 289.243C726.118 293.191 727.049 297.535 730.071 300.557C733.092 303.578 737.437 304.51 741.385 303.385Z" fill="#93E6B8"/>
<path d="M747 300.196C750.522 302.304 754.96 302.529 758.66 300.392C762.361 298.256 764.385 294.301 764.321 290.196C760.798 288.088 756.361 287.864 752.66 290C748.96 292.137 746.935 296.092 747 300.196Z" fill="#93E6B8"/>
<path d="M755.196 322.321C757.304 318.798 757.529 314.361 755.392 310.66C753.256 306.96 749.301 304.935 745.196 305C743.088 308.522 742.864 312.96 745 316.66C747.137 320.361 751.092 322.385 755.196 322.321Z" fill="#93E6B8"/>
<circle cx="683" cy="288" r="3" fill="#973309"/>
<circle cx="664" cy="295" r="3" fill="#973309"/>
<circle cx="670" cy="285" r="3" fill="#973309"/>
<circle cx="737" cy="331" r="3" fill="#973309"/>
<circle cx="739" cy="341" r="3" fill="#973309"/>
<circle cx="789" cy="291" r="3" fill="#973309"/>
<circle cx="802" cy="289" r="3" fill="#973309"/>
<circle cx="722" cy="337" r="3" fill="#973309"/>
<path d="M1314.38 334.091C1299.08 284.533 1174.32 218.456 1151.38 208.786C1074.86 188.026 1022.5 250.236 999.533 285.924C993.694 294.997 978.363 295.295 971.309 287.133C956.147 269.585 930.634 251.371 899.844 274.057C858.844 304.268 927.211 400.572 953.773 415.077C975.023 426.681 1044.33 397.752 1053.58 355.447C1092.22 361.087 1109.12 362.296 1166.67 378.413C1161.67 387.283 1163.67 412.767 1173.02 422.924C1173.84 423.812 1174.88 424.458 1175.98 424.939C1200.12 435.409 1227.03 430.748 1243.14 429.985C1287.41 426.761 1329.67 383.65 1314.38 334.091Z" fill="#E5F8BC"/>
<path d="M1094.75 57.8567C1051.65 46.0711 1043.6 72.0431 1044.96 86.5023C1022.1 70.9519 1000.06 120.059 1000.06 186.353C1000.06 252.647 1040.06 256.74 1067.81 253.466C1095.57 250.192 1121.57 188.885 1140.51 222.083C1144.59 229.216 1174.66 234.317 1188.81 233.364C1208.23 232.057 1218.29 261.91 1226.24 233.364C1242.74 174.136 1173.06 164.367 1177.14 118.534C1181.22 72.7012 1148.63 72.5888 1094.75 57.8567Z" fill="#0E0E10"/>
<path d="M1033.95 131.948C1019.32 175.851 1033.76 228.441 1065.76 221.817C1074.01 241.358 1040.35 270.835 1082.59 270.835C1108.24 270.835 1130.7 254.549 1144.88 241.945C1150.43 237.013 1150.19 228.322 1145.53 222.55C1136.8 211.76 1128.04 198.463 1127.29 181.791C1134.88 181.791 1146.67 178.791 1140.92 166.883C1135.23 155.121 1128.06 162.229 1123.6 166.189C1123.09 166.646 1122.44 166.909 1121.76 166.923C1115.32 167.052 1080.97 166.09 1065.76 131.948C1048.93 94.1911 1052.25 77.0675 1033.95 131.948Z" fill="#DD9E86"/>
<path d="M1041.92 193.672C1042.11 191.903 1049.67 191.294 1051.54 195.536C1053.75 191.294 1066.23 189.374 1071.69 192.879C1065.25 199.116 1065.98 205.563 1052.53 205.563C1047.31 205.563 1045.1 200.267 1044.54 197.359C1043.84 196.605 1041.74 195.441 1041.92 193.672Z" fill="#99060C"/>
<path d="M1038.66 153.597C1035.17 152.762 1031.24 153.073 1028.68 155.715L1030.99 157.957C1031.85 157.068 1033.12 156.548 1034.64 156.431C1033.68 157.167 1033.06 158.327 1033.06 159.631C1033.06 161.857 1034.86 163.66 1037.08 163.66C1039.3 163.66 1041.11 161.857 1041.11 159.631C1041.11 158.919 1040.92 158.251 1040.6 157.671C1042.53 158.566 1044.27 159.877 1045.47 161.423L1048.02 159.45C1045.77 156.55 1042.2 154.442 1038.66 153.597Z" fill="#632914"/>
<path d="M1074.11 165.272C1071.89 165.272 1070.08 163.468 1070.08 161.243C1070.08 159.939 1070.7 158.779 1071.66 158.043C1070.14 158.16 1068.88 158.68 1068.02 159.569L1065.71 157.327C1068.26 154.685 1072.19 154.374 1075.69 155.209C1079.23 156.054 1082.8 158.162 1085.04 161.062L1082.5 163.035C1081.3 161.488 1079.55 160.177 1077.63 159.283C1077.95 159.863 1078.13 160.531 1078.13 161.243C1078.13 163.468 1076.33 165.272 1074.11 165.272Z" fill="#632914"/>
<path d="M1044.44 141.976C1043.1 141.034 1030.99 134.517 1025.01 147.331C1029.51 144.544 1036.71 145.852 1043.28 147.331C1049.44 148.717 1045.77 142.918 1044.44 141.976Z" fill="#0E0E10"/>
<path d="M1069.6 141.926C1074.56 139.84 1086.62 141.042 1093.43 153.185C1088.31 150.544 1079.02 146.508 1071.54 147.91C1064.53 149.223 1066.73 142.807 1069.6 141.926Z" fill="#0E0E10"/>
<path d="M1157.29 342.443C1163.19 347.416 1171.81 345.959 1179.84 344.584C1182.59 344.113 1185.22 345.723 1185.86 348.392C1187.98 357.293 1191.35 377.45 1183.37 393.334C1180.58 398.905 1164.44 378.153 1158.22 381.233C1139.83 387.33 1137.7 378.413 1130.05 377.204C1122.4 375.995 1117.57 382.442 1112.75 386.471C1107.92 390.5 1099.87 388.888 1100.27 384.859C1100.59 381.636 1111.94 372.772 1117.57 368.743C1115.29 368.205 1109.53 367.212 1104.7 367.534C1098.66 367.937 1092.22 379.218 1084.17 383.65C1077.73 387.196 1075.32 382.979 1074.91 380.427C1074.65 381.77 1069.68 383.348 1066.06 382.442C1058.01 380.427 1062.04 371.966 1066.06 368.743C1069.28 366.164 1084.84 351.562 1092.22 344.584C1088.46 344.584 1080.15 345.145 1076.93 347.388C1072.9 350.193 1061.63 355.447 1058.82 352.223C1056 349 1056.4 344.584 1074.91 335.301C1100.4 322.52 1121.2 320.796 1133.67 324.422C1146.15 328.048 1150.05 336.619 1157.29 342.443Z" fill="#DD9E86"/>
<path fill-rule="evenodd" clip-rule="evenodd" d="M952.087 284.279C950.714 276.24 949.258 267.609 954.225 261.707C954.485 261.383 954.75 261.054 955.021 260.718C960.799 253.535 968.802 243.585 973.031 232.423C973.51 231.465 974.121 230.399 974.805 229.211C978.718 222.4 984.969 211.521 981.885 193.34C981.472 190.904 981.079 188.492 980.694 186.123C977.699 167.724 975.103 151.773 966.189 144.991C956.127 137.335 940.029 131.695 934.395 134.918C931.175 140.559 934.395 147.408 940.029 146.2C941.961 146.844 944.054 150.229 944.859 151.84C943.249 153.452 940.029 157.401 940.029 160.301C936.407 157.481 930.773 157.884 928.76 161.913C924.736 160.301 915.479 163.122 915.077 169.166C914.755 174.001 916.284 179.775 917.089 182.059C912.627 181.924 904.115 183.993 905.767 193.34C907.832 205.025 914.674 203.816 917.089 200.19C917.089 201.545 917.057 202.76 917.029 203.865C916.912 208.347 916.842 211.06 919.101 214.292C919.931 215.479 918.131 217.806 915.468 221.248C909.095 229.486 897.782 244.108 905.767 264.771C907.225 267.719 905.518 272.421 903.911 276.849C902.126 281.766 900.464 286.345 903.392 287.812C919.257 295.804 939.392 292.43 948.283 290.304C950.949 289.668 952.558 287.037 952.087 284.279ZM955.938 171.278C953.713 168.36 952.498 164.145 951.875 160.5C952.246 165.788 948.055 168.895 945.913 169.788C948.494 175.138 954.281 185.348 956.789 183.396C959.924 180.955 958.164 174.196 955.938 171.278Z" fill="#DD9E86"/>
<path d="M868.928 159.913L869.814 158.185C869.814 158.185 884.317 162.189 891.436 161.048C897.691 160.048 902.248 158.764 906.075 161.042C913.36 159.102 973.209 135.855 988.055 135.717C1002.9 135.579 1005 142.815 993.276 148.134C981.555 153.453 923.569 158.913 909.88 170.695C901.375 177.976 896.594 182.462 862.768 169.64L863.756 167.846C863.756 167.846 884.102 173.591 884.695 171.469C885.115 170.582 866.375 165.122 866.375 165.122L867.419 163.123C867.419 163.123 885.724 167.588 886.151 166.357C886.579 165.127 868.928 159.913 868.928 159.913Z" fill="white"/>
<path d="M1050.09 162.048C1050.09 162.048 1048.54 171.41 1049.44 178.363C1050.33 185.317 1058.82 182.387 1058.82 182.387" stroke="#BE724D" stroke-width="4" stroke-miterlimit="10" stroke-linejoin="round"/>
<path d="M909 310C890.775 310 876 312.239 876 315V485C876 487.761 890.775 490 909 490C927.225 490 942 487.761 942 485V315C942 312.239 927.225 310 909 310Z" fill="#CEF9E9"/>
<path d="M884 335H934V434C934 447.807 922.807 459 909 459V459C895.193 459 884 447.807 884 434V335Z" fill="#25BE7C"/>
<ellipse cx="909" cy="335" rx="25" ry="3" fill="#179443"/>
<path fill-rule="evenodd" clip-rule="evenodd" d="M921.635 367.839C915.971 366.997 911.626 362.114 911.626 356.216C911.626 353.496 912.55 350.992 914.102 349C919.766 349.841 924.111 354.725 924.111 360.623C924.111 363.343 923.187 365.847 921.635 367.839Z" fill="#09190F"/>
<path fill-rule="evenodd" clip-rule="evenodd" d="M927.568 425.733C927.564 429.79 925.457 433.736 921.69 435.91C917.924 438.085 913.453 437.937 909.938 435.911C909.941 431.854 912.048 427.909 915.815 425.734C919.582 423.559 924.052 423.707 927.568 425.733Z" fill="#09190F"/>
<path fill-rule="evenodd" clip-rule="evenodd" d="M894.672 393.776C901.162 393.776 906.423 388.515 906.423 382.025C906.423 379.902 905.86 377.91 904.875 376.192C904.186 376.066 903.476 376 902.751 376C896.261 376 891 381.261 891 387.751C891 389.874 891.563 391.865 892.548 393.584C893.237 393.71 893.947 393.776 894.672 393.776Z" fill="#09190F"/>
<path d="M891 368L911 278" stroke="#03401B" stroke-width="2" stroke-miterlimit="10" stroke-linejoin="round"/>
<circle cx="912.5" cy="271.5" r="7.5" stroke="#03401B" stroke-width="2" stroke-miterlimit="10" stroke-linejoin="round"/>
<path d="M929.053 408C926.135 402.947 921.33 399.26 915.694 397.75C910.058 396.239 904.053 397.03 899 399.947C893.947 402.865 890.26 407.67 888.75 413.306C887.239 418.942 888.03 424.947 890.947 430L910 419L929.053 408Z" fill="#03401B"/>
<path d="M924.722 410.5C922.468 406.595 918.755 403.746 914.4 402.579C910.045 401.412 905.405 402.023 901.5 404.278C897.595 406.532 894.746 410.245 893.579 414.6C892.412 418.955 893.023 423.595 895.278 427.5L910 419L924.722 410.5Z" fill="#179443"/>
<path d="M913.464 417C912.934 416.081 912.06 415.411 911.035 415.136C910.011 414.862 908.919 415.005 908 415.536C907.081 416.066 906.411 416.94 906.136 417.965C905.862 418.989 906.005 420.081 906.536 421L910 419L913.464 417Z" fill="#CEF9E9"/>
<rect opacity="0.5" x="900" y="380.91" width="13.8205" height="13.8205" rx="2" transform="rotate(-30 900 380.91)" fill="white"/>
<rect opacity="0.5" x="916.91" y="357" width="13.8205" height="13.8205" rx="2" transform="rotate(30 916.91 357)" fill="white"/>
<rect opacity="0.5" x="916.91" y="390" width="13.8205" height="13.8205" rx="2" transform="rotate(30 916.91 390)" fill="white"/>
<rect opacity="0.5" x="897.319" y="349" width="13.8205" height="13.8205" rx="2" transform="rotate(5.47558 897.319 349)" fill="white"/>
<rect opacity="0.5" width="13.8205" height="13.8205" rx="2" transform="matrix(0.866025 0.5 0.5 -0.866025 892 446.09)" fill="white"/>
<defs>
<clipPath id="clip0">
<rect width="472" height="481" fill="white" transform="translate(208)"/>
</clipPath>
</defs>
</svg>
