<svg width="1440" height="568" viewBox="0 0 1440 568" fill="none" xmlns="http://www.w3.org/2000/svg">
<path d="M1440 480.232V568H0V482.445C103.597 404.185 387.499 348 721.493 348C1052.33 348 1334.02 403.129 1440 480.232Z" fill="#F8D1DF"/>
<g clip-path="url(#clip0)">
<path d="M459.738 217.91C417.921 208.255 371.728 205.893 362.431 206.745L269.718 211.399C202.987 222.387 126.517 282.208 105.136 325.145C61.847 411.693 103.433 483.195 197.697 484.861C224.223 485.33 226.592 440.24 221.769 414.131C282.008 397.076 354.915 384.631 435.292 378.488C476.421 410.799 559.835 385.778 559.835 325.145C559.835 267.36 501.555 227.565 459.738 217.91Z" fill="#5A0650"/>
<path d="M392.84 127.564C401.475 156.977 382.407 165.352 371.794 165.862C347.69 181.692 294.84 212.024 276.277 206.714C253.071 200.076 250.374 191.905 249.295 174.033C209.9 154.117 243.824 130.383 232.517 114.928C213.419 88.8232 256.896 54.4314 282.494 67.2767C288.183 38.6858 349.538 34.5422 359.382 63.7333C386.905 61.6907 407.95 99.9889 392.84 127.564Z" fill="#632914"/>
<path d="M377.453 128.096C392.251 172.438 377.653 225.553 345.297 218.863C336.958 238.6 370.982 268.371 328.285 268.371C302.349 268.371 279.643 251.922 265.303 239.192C259.692 234.211 259.932 225.433 264.651 219.603C273.474 208.705 282.329 195.276 283.086 178.437C259.473 179.658 255.444 156.926 262.502 145.582C271.072 131.804 281.776 145.941 288.085 154.386C289.675 156.513 293.937 156.146 295.498 153.998C297.782 150.851 300.354 146.41 300.234 139.778C300.048 129.511 316.128 135.302 324.648 122.687C333.625 125.129 357.606 119.025 360.861 97.4683C366.236 101.75 371.797 111.149 377.453 128.096Z" fill="#FCBA8B"/>
<path d="M275.951 341.077L275.988 339.116C275.988 339.116 290.935 336.297 296.892 332.096C302.127 328.407 305.694 325.217 310.182 325.581C315.934 320.581 359.951 272.879 373.369 266.152C386.787 259.425 391.906 265.054 383.626 275.092C375.345 285.13 325.12 315.869 317.924 332.644C313.435 343.031 311.088 349.227 274.678 352.639L274.779 350.572C274.779 350.572 295.804 346.735 295.401 344.546C295.388 343.556 275.946 346.937 275.946 346.937L276.007 344.66C276.007 344.66 294.61 340.568 294.453 339.262C294.294 337.957 275.951 341.077 275.951 341.077Z" fill="white"/>
<path d="M409.56 301.628C415.52 306.65 424.236 305.178 432.356 303.79C435.14 303.314 437.797 304.94 438.44 307.637C440.587 316.626 443.994 336.985 435.923 353.027C433.108 358.654 418.937 347.514 412.654 350.625C396.088 359.631 371.441 345.689 368.592 341.619C365.744 337.55 364.117 337.55 354.758 338.364C345.399 339.178 342.551 331.446 349.061 326.156C337.668 329.411 333.599 324.528 335.634 320.865C337.668 317.203 358.827 311.506 368.592 309.471C365.744 305.809 351.91 307.637 348.248 309.471C347.434 313.948 342.958 318.424 335.634 318.017C331.972 318.017 334.006 305.402 337.261 300.112C340.517 294.821 358.013 294.008 364.117 291.973C359.641 287.09 353.944 290.345 349.061 291.973C344.179 293.601 337.668 295.228 337.261 291.973C336.855 285.869 349.061 280.579 358.827 276.102C368.556 271.643 382.324 282.127 388.059 284.62C388.104 284.64 388.15 284.654 388.198 284.665C402.365 287.93 402.255 295.756 409.56 301.628Z" fill="#FCBA8B"/>
<path d="M372.662 189.972C365.375 186.863 358.088 192.305 357.278 192.305C354.04 189.195 346.429 186.553 341.895 188.418C340.275 198.524 351.61 201.633 357.278 201.633C362.946 201.633 368.614 198.524 372.662 189.972Z" fill="#CA5919"/>
<path d="M372.423 149.951C375.927 149.126 379.868 149.433 382.427 152.044L380.109 154.259C379.782 153.926 373.882 151.173 367.372 156.11L364.821 154.16C367.068 151.296 368.875 150.786 372.423 149.951Z" fill="#0E0E10"/>
<path d="M333.762 151.532C330.161 151.631 326.436 152.935 324.648 156.11L327.469 157.658C327.697 157.252 332.438 152.697 342.378 157.26L344.331 154.725C341.41 152.532 337.409 151.433 333.762 151.532Z" fill="#0E0E10"/>
<path d="M364.117 139.024C365.184 138.273 377.817 133.125 384.055 137.744C385.715 138.973 387.31 140.185 386.496 143.633C381.945 140.818 371.931 142.939 365.287 144.433C360.862 145.428 361.269 140.185 364.117 139.024Z" fill="#0E0E10"/>
<path d="M344.513 139.024C340.672 137.413 326.411 135.266 319.765 140.999C317.723 142.761 316.103 146.289 317.324 149.545C322.502 146.878 334.992 143.652 342.551 145.069C349.635 146.395 347.414 139.915 344.513 139.024Z" fill="#0E0E10"/>
<path d="M222.647 406.885C211.383 413.283 207.97 410.435 199.851 409.047C197.067 408.571 194.41 410.197 193.766 412.893C191.62 421.883 188.212 442.242 196.283 458.283C199.099 463.911 213.27 452.771 219.552 455.882C228.036 460.028 243.194 459.858 251.235 458.524C253.072 458.219 255.248 459.237 256.724 460.373C260.713 463.446 268.705 466.473 268.705 467.768C268.705 469.433 266.788 475.852 261.517 472.523C256.246 469.195 248.819 473.95 250.976 475.852C253.132 477.753 269.663 484.648 277.57 486.549C285.476 488.451 287.153 484.172 288.351 481.082C293.143 480.844 295.059 470.621 293.622 457.783C294.341 461.587 299.851 467.531 301.049 477.991C302.247 488.451 312.309 497.961 311.591 488.689C310.872 479.417 308.715 455.643 303.685 449.232C298.653 442.821 283.08 428.779 273.018 419.204C266.055 412.893 233.91 400.485 222.647 406.885Z" fill="#FCBA8B"/>
<path d="M360.675 161.753C360.675 161.753 367.274 172.471 364.771 177.83C362.268 183.19 354.758 180.716 354.758 180.716" stroke="#D58E54" stroke-width="4" stroke-miterlimit="10" stroke-linejoin="round"/>
</g>
<path d="M531 372C548.673 372 563 374.239 563 377C567 387 576 411.1 576 427.5C576 445.485 559.963 460.432 538.855 463.446C538.855 463.446 535.46 479.367 537.19 480.096C538.921 480.825 540 481.857 540 483C540 483.984 539.2 484.886 537.873 485.582C536.547 486.279 542.745 494.021 551.891 494.928C561.037 495.834 567 497.32 567 499C567 501.761 550.882 504 531 504C511.118 504 495 501.761 495 499C495 497.32 500.963 495.834 510.109 494.928C519.255 494.021 525.453 486.279 524.127 485.582C522.8 484.886 522 483.984 522 483C522 481.857 523.079 480.825 524.81 480.096C526.54 479.367 523.145 463.446 523.145 463.446C502.037 460.432 486 445.485 486 427.5C486 418.3 494.333 390 499 377C499 374.239 513.327 372 531 372Z" fill="#FFE8C5"/>
<path d="M531.5 455C552.211 455 569 443.807 569 430C569 422.054 565.789 415.316 563 411H499.031C496.479 414.743 494 420.941 494 430C494 443.807 510.789 455 531.5 455Z" fill="#EF8F50"/>
<ellipse cx="531" cy="411" rx="32" ry="7" fill="#CA5919"/>
<path d="M1404.08 364.975C1387.54 311.309 1252.59 239.755 1227.77 229.283C1145 206.802 1088.36 274.169 1063.52 312.815C1057.21 322.64 1040.62 322.963 1032.99 314.124C1016.59 295.122 988.996 275.398 955.691 299.965C911.342 332.68 985.294 436.967 1014.03 452.674C1037.01 465.24 1111.97 433.914 1121.99 388.101C1163.78 394.209 1182.06 395.518 1244.32 412.971C1238.9 422.576 1241.06 450.172 1251.18 461.172C1252.07 462.133 1253.19 462.833 1254.38 463.353C1280.49 474.692 1309.6 469.644 1327.03 468.818C1374.91 465.327 1420.62 418.642 1404.08 364.975Z" fill="#973309"/>
<path d="M1085.59 96.1764C1084.82 101.526 1079.46 110.125 1092.82 123.259C1106.18 136.394 1206.35 183.298 1213.99 180.242C1223.53 176.42 1236.42 120.059 1222.58 112.416C1233.08 94.2658 1219.24 70.8615 1204.44 82.3248C1201.58 46.5017 1152.89 53.1887 1113.75 45.0689C1074.61 36.9489 1077.47 60.831 1074.13 70.8615C1070.79 80.892 1086.54 89.4895 1085.59 96.1764Z" fill="#0E0E10"/>
<path d="M1112.85 111.479C1107.3 110.237 1097.56 147.395 1096.56 152.929C1088.71 196.127 1104.47 240.154 1135.16 233.797C1144.08 254.957 1107.68 286.876 1153.36 286.876C1181.11 286.876 1205.4 269.241 1220.74 255.592C1226.74 250.251 1226.49 240.84 1221.44 234.589C1212 222.904 1202.53 208.505 1201.71 190.452C1226.98 191.761 1234.82 164.273 1223.74 155.225C1219.26 151.564 1214.25 152.081 1210.01 154.014C1207.42 155.193 1204.19 153.726 1204.18 150.879C1204.16 144.756 1204.24 136.445 1204.28 132.869C1204.29 131.897 1203.5 131.126 1202.54 130.999C1193.23 129.773 1188.59 118.914 1188.59 111.479C1158.56 114.533 1127.21 114.698 1112.85 111.479Z" fill="#D58E54"/>
<path d="M1155.51 285.131C1171.38 285.131 1184.24 287.085 1184.24 289.494V437.84C1184.24 440.25 1171.38 442.203 1155.51 442.203C1139.64 442.203 1126.78 440.25 1126.78 437.84V289.494C1126.78 287.085 1139.64 285.131 1155.51 285.131Z" fill="#CEF9E9"/>
<path d="M1177.27 306.947H1133.74V393.336C1133.74 405.385 1143.49 415.152 1155.51 415.152C1167.53 415.152 1177.27 405.385 1177.27 393.336V306.947Z" fill="#25BE7C"/>
<path d="M1155.51 309.565C1143.49 309.565 1133.74 308.393 1133.74 306.947C1133.74 305.501 1143.49 304.329 1155.51 304.329C1167.53 304.329 1177.27 305.501 1177.27 306.947C1177.27 308.393 1167.53 309.565 1155.51 309.565Z" fill="#179443"/>
<path fill-rule="evenodd" clip-rule="evenodd" d="M1144.51 335.603C1149.44 334.868 1153.22 330.607 1153.22 325.46C1153.22 323.087 1152.42 320.902 1151.07 319.164C1146.13 319.897 1142.35 324.159 1142.35 329.306C1142.35 331.68 1143.16 333.865 1144.51 335.603Z" fill="#09190F"/>
<path fill-rule="evenodd" clip-rule="evenodd" d="M1139.34 386.122C1139.34 389.663 1141.18 393.106 1144.46 395.003C1147.74 396.901 1151.63 396.772 1154.69 395.004C1154.69 391.464 1152.85 388.021 1149.57 386.123C1146.29 384.225 1142.4 384.355 1139.34 386.122Z" fill="#09190F"/>
<path fill-rule="evenodd" clip-rule="evenodd" d="M1167.98 358.236C1162.33 358.236 1157.75 353.645 1157.75 347.982C1157.75 346.129 1158.24 344.391 1159.1 342.892C1159.7 342.782 1160.32 342.724 1160.95 342.724C1166.6 342.724 1171.18 347.315 1171.18 352.979C1171.18 354.831 1170.69 356.569 1169.83 358.069C1169.23 358.179 1168.61 358.236 1167.98 358.236Z" fill="#09190F"/>
<path d="M1171.18 335.743L1153.77 257.207" stroke="#03401B" stroke-width="2" stroke-miterlimit="10" stroke-linejoin="round"/>
<path d="M1152.46 258.08C1148.85 258.08 1145.93 255.15 1145.93 251.535C1145.93 247.921 1148.85 244.991 1152.46 244.991C1156.07 244.991 1158.99 247.921 1158.99 251.535C1158.99 255.15 1156.07 258.08 1152.46 258.08Z" stroke="#03401B" stroke-width="2" stroke-miterlimit="10" stroke-linejoin="round"/>
<path d="M1138.05 370.648C1140.59 366.239 1144.77 363.021 1149.68 361.704C1154.59 360.385 1159.81 361.075 1164.21 363.621C1168.61 366.167 1171.82 370.36 1173.14 375.278C1174.45 380.196 1173.77 385.436 1171.23 389.846L1154.64 380.247L1138.05 370.648Z" fill="#03401B"/>
<path d="M1141.82 372.83C1143.78 369.422 1147.01 366.936 1150.81 365.918C1154.6 364.9 1158.64 365.433 1162.04 367.4C1165.44 369.367 1167.92 372.607 1168.93 376.408C1169.95 380.208 1169.42 384.257 1167.46 387.664L1154.64 380.247L1141.82 372.83Z" fill="#179443"/>
<path d="M1151.62 378.502C1152.08 377.7 1152.84 377.115 1153.74 376.875C1154.63 376.636 1155.58 376.761 1156.38 377.224C1157.18 377.687 1157.76 378.45 1158 379.344C1158.24 380.238 1158.12 381.19 1157.65 381.992L1154.64 380.247L1151.62 378.502Z" fill="#CEF9E9"/>
<path opacity="0.5" d="M1154.43 341.851L1161.84 346.136C1162.67 346.618 1162.95 347.685 1162.47 348.52L1158.2 355.942C1157.72 356.776 1156.65 357.062 1155.82 356.581L1148.41 352.296C1147.58 351.814 1147.3 350.746 1147.78 349.912L1152.05 342.49C1152.53 341.655 1153.6 341.369 1154.43 341.851Z" fill="white"/>
<path opacity="0.5" d="M1139.71 331.302L1147.11 327.017C1147.95 326.535 1149.01 326.821 1149.49 327.656L1153.77 335.077C1154.25 335.912 1153.96 336.98 1153.13 337.462L1145.72 341.746C1144.89 342.228 1143.83 341.942 1143.35 341.108L1139.07 333.686C1138.59 332.851 1138.88 331.784 1139.71 331.302Z" fill="white"/>
<path opacity="0.5" d="M1139.71 360.099L1147.11 355.814C1147.95 355.332 1149.01 355.618 1149.49 356.453L1153.77 363.874C1154.25 364.709 1153.96 365.776 1153.13 366.258L1145.72 370.543C1144.89 371.025 1143.83 370.739 1143.35 369.904L1139.07 362.483C1138.59 361.648 1138.88 360.581 1139.71 360.099Z" fill="white"/>
<path opacity="0.5" d="M1155.43 320.148L1163.94 319.33C1164.9 319.238 1165.75 319.941 1165.84 320.901L1166.66 329.431C1166.75 330.391 1166.05 331.243 1165.09 331.335L1156.58 332.153C1155.62 332.245 1154.77 331.542 1154.68 330.582L1153.87 322.052C1153.77 321.092 1154.48 320.24 1155.43 320.148Z" fill="white"/>
<path opacity="0.5" d="M1161.4 409.044L1168.8 404.759C1169.63 404.277 1169.92 403.21 1169.44 402.375L1165.16 394.954C1164.68 394.119 1163.62 393.833 1162.78 394.315L1155.38 398.6C1154.55 399.082 1154.26 400.149 1154.74 400.984L1159.02 408.405C1159.5 409.24 1160.56 409.526 1161.4 409.044Z" fill="white"/>
<path d="M1111.1 204.787L1135.95 197.787C1135.95 197.787 1139.35 212.376 1126.43 217.043C1113.5 221.71 1111.1 204.787 1111.1 204.787Z" fill="#CA5919"/>
<path d="M1106.14 159.909C1102.39 159.024 1098.17 159.354 1095.43 162.153L1097.91 164.528C1098.26 164.171 1104.57 161.219 1111.54 166.513L1114.27 164.422C1111.86 161.351 1109.93 160.804 1106.14 159.909Z" fill="#632914"/>
<path d="M1147.5 161.604C1151.35 161.71 1155.34 163.108 1157.25 166.513L1154.23 168.172C1153.99 167.737 1148.91 162.853 1138.28 167.745L1136.19 165.028C1139.32 162.676 1143.6 161.498 1147.5 161.604Z" fill="#632914"/>
<path d="M1115.02 148.194C1113.88 147.387 1100.37 141.868 1093.69 146.82C1091.92 148.138 1090.21 149.438 1091.08 153.135C1095.95 150.117 1106.66 152.39 1113.77 153.992C1118.5 155.06 1118.07 149.438 1115.02 148.194Z" fill="#0E0E10"/>
<path d="M1136 148.194C1140.11 146.466 1155.36 144.164 1162.47 150.311C1164.66 152.2 1166.39 155.983 1165.09 159.474C1159.55 156.614 1146.18 153.157 1138.09 154.674C1130.52 156.097 1132.89 149.149 1136 148.194Z" fill="#0E0E10"/>
<path d="M1234.16 373.243C1238.81 378.456 1249.87 377.05 1258.55 375.562C1261.53 375.051 1264.37 376.795 1265.06 379.686C1267.36 389.324 1271 411.153 1262.37 428.353C1259.36 434.386 1245.62 412.098 1227.77 412.098C1209.92 412.098 1181.04 389.147 1177.37 383.806C1173.7 378.465 1167.36 377.798 1163.68 372.123C1160.75 367.583 1164.46 366.225 1166.69 366.114C1163.8 364.779 1158.01 361.307 1158.01 358.102C1158.01 354.898 1168.02 354.765 1173.03 355.098C1170.92 353.875 1165.62 351.36 1161.35 351.093C1156.01 350.758 1150.67 345.084 1152 340.077C1153.34 335.07 1161.35 336.739 1166.69 339.075C1169.94 340.497 1178.37 342.414 1183.38 343.414C1183.38 339.742 1169.69 333.067 1161.35 331.732C1153 330.396 1147.66 326.725 1148.66 323.386C1149.66 320.048 1163.35 321.049 1169.69 321.049C1176.04 321.049 1199.4 333.067 1205.75 339.075C1212.09 345.084 1229.51 368.03 1234.16 373.243Z" fill="#D58E54"/>
<path fill-rule="evenodd" clip-rule="evenodd" d="M1012.2 311.034C1010.72 302.328 1009.14 292.982 1014.51 286.591C1014.8 286.241 1015.08 285.884 1015.37 285.521C1021.62 277.741 1030.28 266.968 1034.86 254.879C1035.37 253.842 1036.04 252.688 1036.77 251.401C1041.01 244.026 1047.77 232.244 1044.43 212.557C1043.99 209.918 1043.56 207.307 1043.14 204.741C1039.9 184.817 1037.1 167.544 1027.46 160.2C1016.57 151.91 999.159 145.801 993.064 149.292C989.581 155.4 993.064 162.817 999.159 161.509C1001.25 162.207 1003.51 165.872 1004.38 167.617C1002.64 169.362 999.159 173.638 999.159 176.779C995.241 173.725 989.146 174.162 986.969 178.525C982.616 176.779 972.603 179.834 972.168 186.378C971.82 191.614 973.474 197.868 974.345 200.34C969.518 200.195 960.311 202.435 962.098 212.557C964.332 225.21 971.733 223.901 974.345 219.974C974.345 221.443 974.311 222.757 974.279 223.954C974.153 228.808 974.077 231.746 976.521 235.245C977.419 236.532 975.471 239.052 972.591 242.779C965.697 251.699 953.461 267.534 962.098 289.91C963.676 293.102 961.829 298.193 960.09 302.988C958.16 308.313 956.362 313.272 959.529 314.86C976.69 323.515 998.47 319.861 1008.09 317.56C1010.97 316.87 1012.71 314.02 1012.2 311.034ZM1016.37 188.666C1013.96 185.506 1012.65 180.942 1011.97 176.994C1012.37 182.72 1007.84 186.085 1005.52 187.052C1008.31 192.845 1014.57 203.902 1017.29 201.788C1020.68 199.145 1018.77 191.826 1016.37 188.666Z" fill="#D58E54"/>
<path d="M1070.93 178.107C1072.97 181.889 1070.39 185.115 1068.84 186.255C1068.84 186.255 890.169 138.689 890.687 135.54C891.205 132.391 1070.93 178.107 1070.93 178.107Z" fill="#3F3F3F"/>
<path d="M1068.62 190.722C1071.21 194.157 1069.14 197.737 1067.78 199.098C1067.78 199.098 884.142 178.859 884.182 175.666C884.222 172.472 1068.62 190.722 1068.62 190.722Z" fill="#3F3F3F"/>
<path d="M1121.18 166.455C1121.18 166.455 1116.36 170.818 1113.76 176.926C1109.52 179.108 1109.02 182.803 1109.52 185.628C1110.92 193.471 1126.78 191.554 1126.78 191.554" stroke="#945338" stroke-width="4" stroke-miterlimit="10" stroke-linejoin="round"/>
<path d="M904.938 145.265H856V162.354C856 168.483 866.955 173.45 880.469 173.45C893.983 173.45 904.938 168.483 904.938 162.354V145.265Z" fill="#09190F"/>
<path d="M880.469 156.361C893.983 156.361 904.938 151.393 904.938 145.264C904.938 139.136 893.983 134.167 880.469 134.167C866.955 134.167 856 139.136 856 145.264C856 151.393 866.955 156.361 880.469 156.361Z" fill="#183603"/>
<path d="M901.395 144.488C901.395 149.206 892.026 153.032 880.469 153.032C868.912 153.032 859.543 149.206 859.543 144.488C859.543 139.769 868.912 135.943 880.469 135.943C892.026 135.943 901.395 139.769 901.395 144.488Z" fill="white"/>
<path fill-rule="evenodd" clip-rule="evenodd" d="M883.901 154.458V173.342C888.102 173.074 891.961 172.324 895.195 171.216V151.817C892.203 153.179 888.285 154.128 883.901 154.458Z" fill="#183603"/>
<path d="M883.68 141.27C885.514 141.27 887.002 139.779 887.002 137.941C887.002 136.102 885.514 134.612 883.68 134.612C881.846 134.612 880.358 136.102 880.358 137.941C880.358 139.779 881.846 141.27 883.68 141.27Z" fill="#EF8F50"/>
<path d="M875.487 142.157C877.321 142.157 878.808 140.666 878.808 138.828C878.808 136.989 877.321 135.499 875.487 135.499C873.652 135.499 872.165 136.989 872.165 138.828C872.165 140.666 873.652 142.157 875.487 142.157Z" fill="#EF8F50"/>
<path d="M888.994 144.599C890.829 144.599 892.316 143.108 892.316 141.27C892.316 139.431 890.829 137.94 888.994 137.94C887.16 137.94 885.673 139.431 885.673 141.27C885.673 143.108 887.16 144.599 888.994 144.599Z" fill="#EF8F50"/>
<path d="M872.165 145.486C873.999 145.486 875.486 143.996 875.486 142.157C875.486 140.319 873.999 138.828 872.165 138.828C870.33 138.828 868.843 140.319 868.843 142.157C868.843 143.996 870.33 145.486 872.165 145.486Z" fill="#EF8F50"/>
<path d="M876.815 147.927C878.65 147.927 880.137 146.437 880.137 144.598C880.137 142.76 878.65 141.269 876.815 141.269C874.981 141.269 873.494 142.76 873.494 144.598C873.494 146.437 874.981 147.927 876.815 147.927Z" fill="#EF8F50"/>
<path d="M882.13 146.818C883.964 146.818 885.451 145.327 885.451 143.489C885.451 141.65 883.964 140.159 882.13 140.159C880.295 140.159 878.808 141.65 878.808 143.489C878.808 145.327 880.295 146.818 882.13 146.818Z" fill="#EF8F50"/>
<path d="M880.358 142.823C882.193 142.823 883.68 141.332 883.68 139.494C883.68 137.655 882.193 136.165 880.358 136.165C878.524 136.165 877.037 137.655 877.037 139.494C877.037 141.332 878.524 142.823 880.358 142.823Z" fill="#EF8F50"/>
<path d="M885.673 146.818C887.508 146.818 888.995 145.327 888.995 143.489C888.995 141.65 887.508 140.159 885.673 140.159C883.839 140.159 882.352 141.65 882.352 143.489C882.352 145.327 883.839 146.818 885.673 146.818Z" fill="#EF8F50"/>
<path d="M880.58 151.478C882.414 151.478 883.902 149.988 883.902 148.149C883.902 146.311 882.414 144.82 880.58 144.82C878.745 144.82 877.258 146.311 877.258 148.149C877.258 149.988 878.745 151.478 880.58 151.478Z" fill="#EF8F50"/>
<path d="M874.601 150.369C876.435 150.369 877.923 148.879 877.923 147.04C877.923 145.202 876.435 143.711 874.601 143.711C872.766 143.711 871.279 145.202 871.279 147.04C871.279 148.879 872.766 150.369 874.601 150.369Z" fill="#EF8F50"/>
<path d="M740.5 513C804.289 513 856 475.827 856 429.971V392H625V429.971C625 475.827 676.711 513 740.5 513Z" fill="#DB9A43"/>
<path opacity="0.5" fill-rule="evenodd" clip-rule="evenodd" d="M736.95 512.962C678.198 494.869 635.012 448.111 629.579 392H856V429.971C856 475.827 804.289 513 740.5 513C739.313 513 738.129 512.987 736.95 512.962Z" fill="#FFBB55"/>
<ellipse cx="740.5" cy="389" rx="115.5" ry="82" fill="#FFBB55"/>
<ellipse cx="740.5" cy="389" rx="115.5" ry="82" fill="#FFBB55"/>
<path d="M741 460C801.751 460 851 427.953 851 388.421V375H631V388.421C631 427.953 680.249 460 741 460Z" fill="#DB9A43"/>
<ellipse cx="743" cy="375" rx="99" ry="63" fill="#6B0205"/>
<path fill-rule="evenodd" clip-rule="evenodd" d="M652.327 400.329C663.626 375.958 702.402 358 748.5 358C788.487 358 822.965 371.513 838.778 391.002C827.651 418.047 788.987 438 743 438C702.482 438 667.65 422.511 652.327 400.329Z" fill="#99060C"/>
<path d="M787 366.728C787 381.769 772.449 390 754.5 390C736.551 390 722 381.769 722 366.728C722 351.688 732.5 339 754.5 339C776.5 339 787 351.688 787 366.728Z" fill="#FDC48F"/>
<ellipse cx="755" cy="348.5" rx="7" ry="3.5" fill="#E9303B"/>
<path fill-rule="evenodd" clip-rule="evenodd" d="M754.5 390C772.449 390 787 381.769 787 366.728C787 365.149 786.884 363.596 786.651 362.081C782.917 361.374 779.015 361 775 361C755.197 361 738.138 370.11 730.411 383.22C736.357 387.669 744.947 390 754.5 390Z" fill="#EF8F50"/>
<path d="M811 400.728C811 415.769 796.449 424 778.5 424C760.551 424 746 415.769 746 400.728C746 385.688 756.5 373 778.5 373C800.5 373 811 385.688 811 400.728Z" fill="#EF8F50"/>
<path fill-rule="evenodd" clip-rule="evenodd" d="M798.456 419.767C796.665 419.921 794.844 420 793 420C771.529 420 753.284 409.291 746.661 394.385C749.276 382.285 759.68 373 778.5 373C800.5 373 811 385.688 811 400.728C811 409.465 806.09 415.904 798.456 419.767Z" fill="#FDC48F"/>
<ellipse cx="779" cy="382.5" rx="7" ry="3.5" fill="#E9303B"/>
<path d="M741 411.728C741 426.769 726.449 435 708.5 435C690.551 435 676 426.769 676 411.728C676 396.688 686.5 384 708.5 384C730.5 384 741 396.688 741 411.728Z" fill="#EF8F50"/>
<path fill-rule="evenodd" clip-rule="evenodd" d="M728.456 430.767C726.665 430.921 724.844 431 723 431C701.529 431 683.284 420.291 676.661 405.385C679.276 393.285 689.68 384 708.5 384C730.5 384 741 396.688 741 411.728C741 420.465 736.09 426.904 728.456 430.767Z" fill="#FDC48F"/>
<ellipse cx="709" cy="393.5" rx="7" ry="3.5" fill="#E9303B"/>
<path fill-rule="evenodd" clip-rule="evenodd" d="M741 451C801.751 451 851 418.765 851 379C851 339.235 801.751 307 741 307C680.249 307 631 339.235 631 379C631 418.765 680.249 451 741 451ZM741 438C794.572 438 838 410.689 838 377C838 343.311 794.572 316 741 316C687.428 316 644 343.311 644 377C644 410.689 687.428 438 741 438Z" fill="#FFBB55"/>
<path d="M658.635 346.075C661.864 369.053 694.159 390.088 704.776 392H740.664C709.903 371.758 723.686 341.406 738.726 351.844C753.766 362.281 806.883 354.425 819.774 321.025C832.666 287.625 804.735 268.837 774.655 275.1C763.916 277.336 759.8 273.475 774.655 268.344C788.99 263.392 785.398 231.262 774.655 225C783.249 235.437 766.061 247.963 748.873 241.7C731.684 235.438 709.594 249.839 712.348 275.1C714.182 291.927 741.956 302.763 722.579 300.214C703.202 297.664 651.718 296.86 658.635 346.075Z" fill="url(#paint0_linear)"/>
<defs>
<linearGradient id="paint0_linear" x1="740.664" y1="264.431" x2="740.664" y2="412.875" gradientUnits="userSpaceOnUse">
<stop stop-color="white"/>
<stop offset="1" stop-color="#CDE6F1" stop-opacity="0"/>
</linearGradient>
<clipPath id="clip0">
<rect width="472" height="481" fill="white" transform="translate(88 12)"/>
</clipPath>
</defs>
</svg>
