<svg width="136" height="21" viewBox="0 0 136 21" fill="none" xmlns="http://www.w3.org/2000/svg">
<path d="M11.74 20.1662L6.66566 15.0788L0.82428 12.0619L1.76834 5.49574L0.82428 1.02954L11.74 3.1887V20.1662Z" fill="#61D8DE"/>
<path d="M11.74 20.1366L16.8143 15.0493L22.6557 12.0619L21.7116 5.49574L22.6557 1.02954L11.74 3.1887V20.1366Z" fill="#4CC8C0"/>
<path d="M22.6262 11.8549L14.4246 3.72113L22.6262 1L21.7411 5.61408L22.6262 11.8549Z" fill="#36C1BF"/>
<path d="M0.883118 11.8549L9.11415 3.69155L0.883118 1L1.79768 5.61408L0.883118 11.8549Z" fill="#36C1BF"/>
<path d="M21.7115 5.55497C21.564 5.58455 14.454 3.78033 14.454 3.78033L22.5671 1.0592L21.7115 5.55497Z" fill="#22ACA7"/>
<path d="M1.79794 5.58452C1.94545 5.6141 9.05541 3.80987 9.05541 3.80987L0.942383 1.08875L1.79794 5.58452Z" fill="#22ACA7"/>
<path d="M13.3626 18.5394L11.74 17.4451L10.1174 18.5394L11.74 20.1366L13.3626 18.5394Z" fill="#B1DCE3"/>
<path d="M45.7558 16.1817L45.7263 8.28452L41.8911 14.7028H40.0325L36.2267 8.49156V16.1817H32.3325V1.27466H35.7842L41.006 9.8817L46.1098 1.27466H49.5616L49.5911 16.1817H45.7558Z" fill="#202020"/>
<path d="M63.457 11.4197H55.0785C55.4325 12.6028 56.4061 13.2831 57.9107 13.2831C59.0318 13.2831 59.7693 12.9578 60.5659 12.2775L62.69 14.4958C61.5984 15.738 59.9758 16.3592 57.7927 16.3592C53.6919 16.3592 51.0367 13.8155 51.0367 10.3845C51.0367 6.92396 53.7214 4.43945 57.3797 4.43945C60.7724 4.43945 63.5456 6.59861 63.5456 10.4141C63.516 10.7395 63.4866 11.124 63.457 11.4197ZM55.0195 9.29016H59.7398C59.5333 8.07748 58.6482 7.30847 57.3797 7.30847C56.1406 7.30847 55.2555 8.07748 55.0195 9.29016Z" fill="#202020"/>
<path d="M75.2281 9.76338V16.1817H71.4814V14.7028C70.9208 15.7972 69.7702 16.3887 68.0886 16.3887C65.3154 16.3887 63.8109 14.8211 63.8109 12.8394C63.8109 10.7099 65.3745 9.37888 68.9442 9.37888H71.2453C71.1863 8.19578 70.3898 7.54507 68.7967 7.54507C67.7051 7.54507 66.466 7.92958 65.6695 8.55071L64.3124 5.8C65.64 4.91268 67.5871 4.46902 69.3867 4.46902C73.0745 4.43944 75.2281 6.09578 75.2281 9.76338ZM71.1863 12.4845V11.4789H69.4457C68.1476 11.4789 67.6756 11.9521 67.6756 12.662C67.6756 13.3423 68.2361 13.8451 69.1802 13.8451C70.0948 13.8155 70.8618 13.4014 71.1863 12.4845Z" fill="#202020"/>
<path d="M77.1459 0.387329H81.1877V16.1817H77.1459V0.387329Z" fill="#202020"/>
<path d="M83.3413 1.27466H90.3628C95.2896 1.27466 98.6823 4.14367 98.6823 8.72818C98.6823 13.3127 95.3191 16.1817 90.3628 16.1817H83.3413V1.27466ZM90.2152 12.8099C92.7524 12.8099 94.434 11.3014 94.434 8.72818C94.434 6.15494 92.7229 4.64649 90.2152 4.64649H87.5601V12.8394H90.2152V12.8099Z" fill="#202020"/>
<path d="M107.769 4.43945V8.07748C107.415 8.0479 107.149 8.01833 106.854 8.01833C105.232 8.01833 104.081 8.8465 104.081 10.8578V16.1521H100.039V4.61692H103.875V6.00706C104.73 4.97185 106.058 4.43945 107.769 4.43945Z" fill="#202020"/>
<path d="M107.946 10.3845C107.946 6.92396 110.69 4.43945 114.436 4.43945C118.242 4.43945 120.927 6.92396 120.927 10.3845C120.927 13.8747 118.242 16.3592 114.436 16.3592C110.69 16.3592 107.946 13.8747 107.946 10.3845ZM116.885 10.3845C116.885 8.63945 115.853 7.6634 114.466 7.6634C113.109 7.6634 112.047 8.63945 112.047 10.3845C112.047 12.1592 113.109 13.1648 114.466 13.1648C115.853 13.1648 116.885 12.1592 116.885 10.3845Z" fill="#202020"/>
<path d="M135.088 10.4141C135.088 14.0817 132.55 16.3888 129.423 16.3888C128.096 16.3888 127.004 15.9747 126.208 15.1761V20.3226H122.166V4.6465H126.001V5.80002C126.768 4.88312 127.889 4.46903 129.394 4.46903C132.55 4.43945 135.088 6.7465 135.088 10.4141ZM131.016 10.4141C131.016 8.66903 129.954 7.6634 128.597 7.6634C127.24 7.6634 126.178 8.66903 126.178 10.4141C126.178 12.1592 127.24 13.1648 128.597 13.1648C129.954 13.1648 131.016 12.1592 131.016 10.4141Z" fill="#202020"/>
</svg>
