<svg width="238" height="116" viewBox="0 0 238 116" fill="none" xmlns="http://www.w3.org/2000/svg">
<ellipse cx="119" cy="59" rx="119" ry="57" fill="white"/>
<path d="M167.383 7.4531C165.955 9.24947 165.883 11.7002 167.203 13.5685L169.258 16.4773C166.813 17.0492 165 19.1339 165 21.6181V24.3783C165 26.5938 166.459 28.579 168.71 29.2095C171.651 30.0334 175.786 31 179 31C182.214 31 186.349 30.0334 189.29 29.2095C191.541 28.579 193 26.5938 193 24.3783V21.6181C193 19.168 191.237 17.1065 188.842 16.5017C188.927 16.0552 188.915 15.5826 188.789 15.1066L187.985 12.0723C187.276 9.39406 184.725 7.51517 181.8 7.51517C180.667 7.51517 179.733 6.67718 179.677 5.60986L179.579 3.76063C179.383 0.0665503 174.397 -1.37211 172.045 1.58685L167.383 7.4531Z" fill="#97B146"/>
<path d="M87.2081 12.7168H31V32.3006C31 39.3239 43.5826 45.0174 59.104 45.0174C74.6255 45.0174 87.2081 39.3239 87.2081 32.3006V12.7168Z" fill="#09190F"/>
<ellipse cx="59.104" cy="12.7168" rx="28.104" ry="12.7168" fill="#183603"/>
<path d="M83.1387 11.8266C83.1387 17.2345 72.378 21.6185 59.104 21.6185C45.83 21.6185 35.0693 17.2345 35.0693 11.8266C35.0693 6.41865 45.83 2.03467 59.104 2.03467C72.378 2.03467 83.1387 6.41865 83.1387 11.8266Z" fill="white"/>
<path fill-rule="evenodd" clip-rule="evenodd" d="M63.0463 23.2527V44.8932C67.8712 44.5867 72.3032 43.7259 76.0174 42.4576V20.2258C72.5814 21.7873 68.0816 22.8754 63.0463 23.2527Z" fill="#183603"/>
<circle cx="62.7918" cy="4.32382" r="3.81503" fill="#EF8F50"/>
<circle cx="53.3814" cy="5.34115" r="3.81503" fill="#EF8F50"/>
<circle cx="68.8958" cy="8.13876" r="3.81503" fill="#EF8F50"/>
<circle cx="49.5664" cy="9.15609" r="3.81503" fill="#EF8F50"/>
<circle cx="54.9076" cy="11.9537" r="3.81503" fill="#EF8F50"/>
<circle cx="61.0116" cy="10.682" r="3.81503" fill="#EF8F50"/>
<circle cx="58.9769" cy="6.10409" r="3.81503" fill="#EF8F50"/>
<circle cx="65.0809" cy="10.682" r="3.81503" fill="#EF8F50"/>
<circle cx="59.2313" cy="16.023" r="3.81503" fill="#EF8F50"/>
<circle cx="52.3642" cy="14.7516" r="3.81503" fill="#EF8F50"/>
<path d="M146.468 26.7053H90.26V46.2891C90.26 53.3124 102.843 59.0059 118.364 59.0059C133.885 59.0059 146.468 53.3124 146.468 46.2891V26.7053Z" fill="#09190F"/>
<path d="M100.688 49.5955H44.4797V69.1793C44.4797 76.2025 57.0623 81.896 72.5838 81.896C88.1052 81.896 100.688 76.2025 100.688 69.1793V49.5955Z" fill="#09190F"/>
<ellipse cx="118.364" cy="26.7053" rx="28.104" ry="12.7168" fill="#183603"/>
<ellipse cx="72.5838" cy="49.5954" rx="28.104" ry="12.7168" fill="#183603"/>
<path d="M142.399 25.8151C142.399 31.223 131.638 35.607 118.364 35.607C105.09 35.607 94.3295 31.223 94.3295 25.8151C94.3295 20.4072 105.09 16.0232 118.364 16.0232C131.638 16.0232 142.399 20.4072 142.399 25.8151Z" fill="white"/>
<path d="M96.6185 48.7052C96.6185 54.1132 85.8579 58.4971 72.5839 58.4971C59.3099 58.4971 48.5492 54.1132 48.5492 48.7052C48.5492 43.2973 59.3099 38.9133 72.5839 38.9133C85.8579 38.9133 96.6185 43.2973 96.6185 48.7052Z" fill="white"/>
<path fill-rule="evenodd" clip-rule="evenodd" d="M122.306 37.2413V58.8816C127.131 58.5751 131.563 57.7143 135.277 56.446V34.2144C131.842 35.7758 127.342 36.8639 122.306 37.2413Z" fill="#183603"/>
<path fill-rule="evenodd" clip-rule="evenodd" d="M76.526 60.1314V81.7718C81.351 81.4654 85.7829 80.6045 89.4971 79.3362V57.1045C86.0611 58.666 81.5613 59.754 76.526 60.1314Z" fill="#183603"/>
<circle cx="127.647" cy="15.5145" r="3.81503" fill="#EF8F50"/>
<circle cx="88.7341" cy="48.578" r="3.81503" fill="#EF8F50"/>
<circle cx="131.462" cy="19.3294" r="3.81503" fill="#EF8F50"/>
<circle cx="122.052" cy="18.3121" r="3.81503" fill="#EF8F50"/>
<circle cx="76.2716" cy="41.2022" r="3.81503" fill="#EF8F50"/>
<circle cx="116.457" cy="15.5145" r="3.81503" fill="#EF8F50"/>
<circle cx="57.1964" cy="47.815" r="3.81503" fill="#EF8F50"/>
<circle cx="115.439" cy="21.1097" r="3.81503" fill="#EF8F50"/>
<circle cx="69.6589" cy="44.0001" r="3.81503" fill="#EF8F50"/>
<circle cx="110.353" cy="17.2948" r="3.81503" fill="#EF8F50"/>
<circle cx="64.5722" cy="40.1849" r="3.81503" fill="#EF8F50"/>
<circle cx="108.827" cy="23.1446" r="3.81503" fill="#EF8F50"/>
<circle cx="63.0462" cy="46.0348" r="3.81503" fill="#EF8F50"/>
<circle cx="114.168" cy="25.9422" r="3.81503" fill="#EF8F50"/>
<circle cx="68.3873" cy="48.8324" r="3.81503" fill="#EF8F50"/>
<circle cx="119.254" cy="23.9076" r="3.81503" fill="#EF8F50"/>
<circle cx="73.474" cy="47.815" r="3.81503" fill="#EF8F50"/>
<circle cx="125.867" cy="21.1097" r="3.81503" fill="#EF8F50"/>
<circle cx="78.5606" cy="47.0521" r="3.81503" fill="#EF8F50"/>
<circle cx="124.087" cy="26.1964" r="3.81503" fill="#EF8F50"/>
<circle cx="78.5606" cy="52.3929" r="3.81503" fill="#EF8F50"/>
<circle cx="129.682" cy="23.9076" r="3.81503" fill="#EF8F50"/>
<circle cx="118.491" cy="30.0116" r="3.81503" fill="#EF8F50"/>
<circle cx="72.711" cy="52.9017" r="3.81503" fill="#EF8F50"/>
<circle cx="111.624" cy="28.7398" r="3.81503" fill="#EF8F50"/>
<circle cx="65.844" cy="51.6302" r="3.81503" fill="#EF8F50"/>
<path d="M172.41 47.3408C172.41 41.9841 162.845 37.6416 151.046 37.6416C139.247 37.6416 129.682 41.9841 129.682 47.3408V62.2776C129.682 67.6344 139.247 71.9768 151.046 71.9768C162.845 71.9768 172.41 67.6344 172.41 62.2776V47.3408Z" fill="#FFE7EB"/>
<path d="M207 68.1963C207 62.8396 197.435 58.4971 185.636 58.4971C173.837 58.4971 164.272 62.8396 164.272 68.1963V83.1331C164.272 88.4898 173.837 92.8323 185.636 92.8323C197.435 92.8323 207 88.4898 207 83.1331V68.1963Z" fill="#FFE7EB"/>
<path d="M146.468 71.7568C146.468 66.4001 136.903 62.0576 125.104 62.0576C113.305 62.0576 103.74 66.4001 103.74 71.7568V86.6936C103.74 92.0504 113.305 96.3929 125.104 96.3929C136.903 96.3929 146.468 92.0504 146.468 86.6936V71.7568Z" fill="#FFE7EB"/>
<ellipse cx="151.046" cy="47.052" rx="21.3642" ry="9.4104" fill="white"/>
<ellipse cx="185.636" cy="67.9075" rx="21.3642" ry="9.4104" fill="white"/>
<ellipse cx="125.104" cy="71.468" rx="21.3642" ry="9.4104" fill="white"/>
<path d="M163 42.9249C155.938 41.4133 141.307 39.7622 139.281 45.2505C136.748 52.1109 160.582 53.3899 160.812 49.3202C161.043 45.2505 149.183 44.204 150.68 46.7621" stroke="#A50633" stroke-width="1.52601" stroke-miterlimit="10" stroke-linejoin="round"/>
<path d="M197.59 63.7806C190.528 62.269 175.897 60.6179 173.871 66.1062C171.337 72.9666 195.172 74.2456 195.402 70.1759C195.632 66.1062 183.773 65.0597 185.27 67.6178" stroke="#A50633" stroke-width="1.52601" stroke-miterlimit="10" stroke-linejoin="round"/>
<path d="M137.058 67.3412C129.996 65.8296 115.365 64.1784 113.339 69.6667C110.806 76.5271 134.64 77.8062 134.87 73.7365C135.1 69.6667 123.241 68.6203 124.738 71.1784" stroke="#A50633" stroke-width="1.52601" stroke-miterlimit="10" stroke-linejoin="round"/>
</svg>
