<svg xmlns="http://www.w3.org/2000/svg" viewBox="0 0 229.86 396.08"><defs><style>.cls-1{fill:#1f161e;}.cls-2{fill:#55b79d;}.cls-3{fill:#73e5e2;}.cls-4{fill:#f8cdba;}.cls-5{fill:#fa9e9f;}.cls-6,.cls-7{fill:none;stroke:#1f161e;stroke-linecap:round;}.cls-6{stroke-miterlimit:10;stroke-width:1.2px;}.cls-7{stroke-linejoin:round;}</style></defs><title>woman-sitting-texting</title><g id="Layer_2" data-name="Layer 2"><g id="vector"><rect class="cls-1" x="175.38" y="128.13" width="14.77" height="32.18" transform="translate(58.13 -52.42) rotate(19.36)"/><path class="cls-1" d="M204.28,325.24c.59,1.35,3.73,9.47,5.47,10.3,3.15,1.49,19.46-7.06,19.9-8.19s.19-3-.73-3.16-8.2,1.44-9.38,1.21-3.91-3-4.23-5"/><path class="cls-1" d="M0,202.29c0,54,17.18,65.34,34.27,65.34,43.29,0,99.61-34.72,102.79-36.06-1,5.68-7.31,149.66-7.31,150.49,1.5,1.17,13,2.18,16.87,1.17,1-3.5,31.41-174.75,31.41-179.26s-2.62-11.37-12.53-12.36c-4.19-.42-62.48-2.84-62.48-2.84"/><path class="cls-2" d="M146.93,164c13.13,19,71.76,151.63,71.24,154.73s-14,9.67-16.85,7.9C189.23,319.18,115,194,112.11,192.11s-7.22-1.16-9.8-.64C95.6,180.32,110.62,167.08,146.93,164Z"/><path class="cls-3" d="M88.15,57.56c19.58,0,25.21,18.54,26.83,25.54,5.18,22.35-9.24,107.28-10.91,109.62C89.9,212.53,8.9,214.29,1,205.71S34.65,57.56,88.15,57.56Z"/><path class="cls-1" d="M133.54,380c-.26,1.45-2.22,9.94-1.24,11.6,1.76,3,20.07,5.07,21.07,4.38s1.83-2.38,1.17-3-7.6-3.4-8.45-4.26-1.56-4.68-.69-6.52"/><path class="cls-4" d="M85.22,61.47c-.53,1.7,13.29,6,13.82,4.31l5.36-17.2L90.59,44.27Z"/><path class="cls-1" d="M98.92,52.65c-1.35-.42-11.16.71-11.82,2.83l3.49-11.21C92.74,44.94,98.92,52.65,98.92,52.65Z"/><circle class="cls-4" cx="106.63" cy="35.12" r="20.29"/><ellipse class="cls-5" cx="123.48" cy="44.76" rx="1.85" ry="3.56" transform="translate(43.96 149.29) rotate(-72.67)"/><ellipse class="cls-5" cx="102.14" cy="38.1" rx="1.85" ry="3.56" transform="translate(35.34 124.25) rotate(-72.67)"/><path class="cls-6" d="M116.34,38.51c.35,1.1,2.43,5.92-1.48,6.39"/><path class="cls-6" d="M106.62,47.2c-1-.35-2.2-2.07-2.67-3.48"/><path class="cls-1" d="M112.77,8.5C107.42,7.83,91.89,3.21,88.36,0,86.69.88,80.2,6.71,74.91,14.6l7.51,7.55-9.49-4.38a38.82,38.82,0,0,0-5.07,13.35c2.45,6.61,10.14,9.33,11.59,9.51C88.8,41.81,92.39,27.28,97.1,25.48c8-3.07,17.42,4.9,29.27,4.4C129,24.51,125.58,10.11,112.77,8.5Z"/><circle class="cls-4" cx="88.03" cy="31.76" r="4.69"/><path class="cls-3" d="M67.86,105.12c-1,6.26-4.24,65.37,3.52,71.12,16.62,12.31,93.37-2.75,105-7.06,1.26-4.12,0-17.21,0-17.21-4.48-.18-61-.72-64.37-5s-3.77-39.27-3.23-43.22"/><circle class="cls-4" cx="184.2" cy="159.68" r="10.87"/><path class="cls-7" d="M112,147c-3.41-4.31-3.77-39.27-3.23-43.22"/><path class="cls-7" d="M106.69,180.68c-15.66.87-29.35,0-35.31-4.44-3.4-2.51-4.69-15.24-5-29.29"/></g></g></svg>