<?xml version="1.0" standalone="no"?>
<!DOCTYPE svg PUBLIC "-//W3C//DTD SVG 20010904//EN"
 "http://www.w3.org/TR/2001/REC-SVG-20010904/DTD/svg10.dtd">
<svg version="1.0" xmlns="http://www.w3.org/2000/svg"
 width="512.000000pt" height="512.000000pt" viewBox="0 0 512.000000 512.000000"
 preserveAspectRatio="xMidYMid meet">
<metadata>
Created by potrace 1.14, written by Peter Selinger 2001-2017
</metadata>
<g transform="translate(0.000000,512.000000) scale(0.100000,-0.100000)"
fill="#000000" stroke="none">
<path d="M220 4466 c-5 -7 -8 -15 -5 -17 3 -4 41 -171 59 -261 2 -13 27 -131
55 -263 92 -431 86 -389 72 -496 -6 -54 -14 -106 -16 -118 -2 -11 -11 -71 -20
-133 -9 -62 -18 -129 -21 -148 -3 -19 -7 -51 -10 -70 -2 -19 -9 -69 -15 -110
-6 -41 -13 -91 -15 -110 -3 -19 -7 -46 -10 -60 -2 -14 -7 -45 -10 -70 -8 -61
-10 -79 -28 -195 -8 -55 -18 -120 -21 -145 -3 -25 -9 -61 -11 -80 -3 -19 -7
-42 -10 -51 -3 -12 11 -25 53 -47 32 -16 119 -61 193 -99 74 -39 209 -109 300
-155 359 -185 529 -273 610 -315 82 -43 103 -63 627 -586 l543 -542 106 105
c58 58 235 235 393 394 157 159 354 357 438 440 l151 151 174 88 c327 167 683
349 873 447 l190 98 -1 33 c-2 29 -24 197 -40 290 -2 15 -6 47 -9 70 -3 24 -9
73 -15 109 -9 63 -14 98 -25 178 -3 20 -8 51 -10 67 -3 17 -7 50 -11 75 -3 25
-9 70 -14 100 -5 30 -12 78 -15 105 -6 50 -7 61 -21 145 -26 165 -26 229 1
360 13 63 26 135 30 160 4 24 8 47 10 50 2 3 6 22 9 43 3 21 13 71 21 110 8
40 16 83 19 97 2 14 14 68 26 120 12 52 23 106 25 120 2 14 8 45 14 69 5 25 8
48 5 52 -2 4 -19 3 -37 -2 -26 -8 -137 -31 -462 -95 -11 -2 -42 -8 -70 -14
-27 -6 -60 -12 -73 -15 -13 -2 -103 -20 -200 -39 -97 -20 -188 -37 -202 -40
-14 -2 -59 -11 -100 -20 -41 -8 -88 -18 -105 -20 -16 -3 -75 -15 -130 -26 -55
-12 -156 -32 -225 -45 -69 -13 -136 -26 -150 -30 -14 -3 -38 -8 -55 -10 -16
-3 -95 -19 -175 -35 -80 -16 -158 -32 -175 -35 -16 -2 -41 -7 -55 -10 -111
-24 -112 -24 -495 55 -55 11 -212 43 -350 70 -137 26 -432 85 -655 129 -223
44 -416 82 -430 85 -152 27 -405 79 -442 90 -37 11 -49 11 -58 2z"/>
</g>
</svg>
