<svg width="40" height="41" viewBox="0 0 40 41" fill="none" xmlns="http://www.w3.org/2000/svg">
<path d="M20.123 20.5654C20.123 18.9283 20.7734 17.3582 21.931 16.2006C23.0887 15.0429 24.6587 14.3926 26.2959 14.3926C27.933 14.3926 29.5031 15.0429 30.6607 16.2006C31.8184 17.3582 32.4687 18.9283 32.4687 20.5654C32.4687 22.2025 31.8184 23.7726 30.6607 24.9303C29.5031 26.0879 27.933 26.7382 26.2959 26.7382C24.6587 26.7382 23.0887 26.0879 21.931 24.9303C20.7734 23.7726 20.123 22.2025 20.123 20.5654Z" fill="#1ABCFE"/>
<path d="M7.77734 32.9131C7.77734 31.2759 8.42769 29.7058 9.58533 28.5482C10.743 27.3906 12.313 26.7402 13.9502 26.7402H20.123V32.9131C20.123 34.5502 19.4727 36.1203 18.315 37.2779C17.1574 38.4356 15.5873 39.0859 13.9502 39.0859C12.313 39.0859 10.743 38.4356 9.58533 37.2779C8.42769 36.1203 7.77734 34.5502 7.77734 32.9131H7.77734Z" fill="#0ACF83"/>
<path d="M20.123 2.04883V14.3945H26.2959C27.933 14.3945 29.5031 13.7441 30.6607 12.5865C31.8184 11.4289 32.4687 9.8588 32.4687 8.22166C32.4687 6.58453 31.8184 5.01444 30.6607 3.85681C29.5031 2.69918 27.933 2.04883 26.2959 2.04883L20.123 2.04883Z" fill="#FF7262"/>
<path d="M7.77734 8.22166C7.77734 9.8588 8.42769 11.4289 9.58533 12.5865C10.743 13.7441 12.313 14.3945 13.9502 14.3945H20.123V2.04883H13.9502C12.313 2.04883 10.743 2.69918 9.58533 3.85681C8.42769 5.01444 7.77734 6.58453 7.77734 8.22166H7.77734Z" fill="#F24E1E"/>
<path d="M7.77734 20.5654C7.77734 22.2025 8.42769 23.7726 9.58533 24.9303C10.743 26.0879 12.313 26.7382 13.9502 26.7382H20.123V14.3926H13.9502C12.313 14.3926 10.743 15.0429 9.58533 16.2006C8.42769 17.3582 7.77734 18.9283 7.77734 20.5654H7.77734Z" fill="#A259FF"/>
</svg>
